<svg id="Layer_1" data-name="Layer 1" xmlns="http://www.w3.org/2000/svg" viewBox="0 0 875 220"><defs><style>.cls-1{fill:#e21836;}.cls-2{fill:#00447c;}.cls-3{fill:#007b84;}.cls-4{fill:#fefefe;}.cls-5{fill:#f90;}.cls-6{fill:#c00;}.cls-7{fill:#fcb340;}.cls-8{fill:#006;}.cls-9{fill:#fff;}.cls-10{fill:#00579f;}.cls-11{fill:#faa61a;}</style></defs><path class="cls-1" d="M119.18,70.32h36.68c5.07,0,8.22,4.13,7,9.22L146,152.12c-1.19,5.07-6.27,9.21-11.34,9.21H98.34c-5.06,0-8.22-4.14-7-9.21l16.92-72.58c1.18-5.09,6.25-9.22,11.33-9.22"/><path class="cls-2" d="M153,70.32h41.8c5.07,0,2.79,4.13,1.59,9.22l-16.9,72.58c-1.19,5.07-.82,9.21-5.89,9.21H131.79c-5.07,0-8.22-4.14-7-9.21l16.9-72.58c1.2-5.09,6.26-9.22,11.33-9.22"/><path class="cls-3" d="M193.3,70.32h36.31c5.07,0,8.23,4.13,7,9.22l-16.91,72.58c-1.19,5.07-6.27,9.21-11.35,9.21H172.1c-5.08,0-8.23-4.14-7-9.21L182,79.54c1.19-5.09,6.26-9.22,11.33-9.22"/><path class="cls-4" d="M129,93.74a38.92,38.92,0,0,1-5.22-.09c-.13.65-2.66,12.33-2.67,12.34-.55,2.36-.94,4.05-2.29,5.13a4,4,0,0,1-2.69.94,2.48,2.48,0,0,1-2.8-2.39l0-.54.51-3.18s2.65-10.65,3.13-12l0-.16c-5.17,0-6.09,0-6.15-.09,0,.12-.17.78-.17.78l-2.71,12-.23,1-.45,3.33a4.83,4.83,0,0,0,.58,2.47c1.23,2.16,4.76,2.49,6.75,2.49a13.08,13.08,0,0,0,6.61-1.55c2.83-1.67,3.57-4.28,4.23-6.6l.31-1.19s2.73-11.06,3.2-12.49C129,93.82,129,93.77,129,93.74Zm9.31,8.91a7.14,7.14,0,0,0-2.95.7c-.39.2-.76.43-1.15.66l.35-1.28-.19-.21c-2.3.46-2.81.53-4.94.83l-.17.11a64.26,64.26,0,0,1-1.38,7.6c-.35,1.48-.71,3-1.07,4.45l.09.19c2.18-.12,2.84-.12,4.73-.09l.15-.16c.24-1.23.27-1.52.8-4,.25-1.18.78-3.78,1-4.7a3.56,3.56,0,0,1,1.39-.44c1.05,0,.93.93.89,1.29-.05.62-.44,2.64-.83,4.38l-.27,1.11c-.18.83-.38,1.63-.57,2.45l.08.17c2.15-.12,2.8-.12,4.63-.09l.22-.16c.33-1.92.42-2.44,1-5.24l.3-1.28c.57-2.52.86-3.79.42-4.83A2.5,2.5,0,0,0,138.35,102.65Zm10.41,2.64c-1.14.22-1.87.36-2.59.46s-1.41.22-2.52.37l-.08.08-.08.06c-.12.82-.2,1.53-.35,2.36s-.33,1.84-.65,3.25a13,13,0,0,1-.52,1.83,15.72,15.72,0,0,0-.57,1.81l.06.1.06.09c1,0,1.7-.09,2.39-.09s1.41,0,2.52,0l.09-.08.11-.08c.16-1,.18-1.22.28-1.68s.26-1.19.67-3c.2-.87.41-1.74.62-2.62s.42-1.75.63-2.62l0-.11Zm0-3.55a4.18,4.18,0,0,0-4.07.42c-1.22.83-1.36,2-.33,2.62a4.14,4.14,0,0,0,4.05-.43C149.65,103.51,149.8,102.34,148.78,101.74ZM155,115.89a7.79,7.79,0,0,0,5.86-2.29,10.47,10.47,0,0,0,2-4.31c.64-2.82.14-4.14-.49-4.94-.95-1.22-2.64-1.62-4.39-1.62a8.1,8.1,0,0,0-5.52,1.91,9.07,9.07,0,0,0-2.45,4.77c-.39,1.73-.85,4.84,2,6A8.33,8.33,0,0,0,155,115.89Zm-.16-6.35c.48-2.14,1.05-3.93,2.51-3.93,1.14,0,1.22,1.33.71,3.48a9.5,9.5,0,0,1-1.07,3,1.76,1.76,0,0,1-1.37.89c-.15,0-1.06,0-1.08-1.35A9.41,9.41,0,0,1,154.88,109.54Zm13.27,6.07.16-.16c.23-1.23.27-1.52.79-4,.25-1.18.78-3.78,1-4.7a3.56,3.56,0,0,1,1.39-.44c1.06,0,.93.93.89,1.29a43.32,43.32,0,0,1-.83,4.37l-.25,1.12c-.19.83-.4,1.63-.58,2.45l.08.17c2.15-.12,2.78-.12,4.62-.09l.22-.16c.32-1.93.41-2.44,1-5.24l.29-1.28c.58-2.52.87-3.79.44-4.83a2.53,2.53,0,0,0-2.57-1.45,7,7,0,0,0-3,.7c-.39.2-.78.43-1.15.66l.33-1.28-.18-.21c-2.3.46-2.82.53-4.94.83l-.16.11a66.46,66.46,0,0,1-1.38,7.6c-.35,1.48-.71,3-1.07,4.45l.09.19C165.61,115.58,166.26,115.58,168.15,115.61Zm15.8.19c.14-.66.94-4.57,1-4.57s.68-2.86.72-3a1.86,1.86,0,0,1,.43-.41h.32c3,0,6.35,0,9-1.94a9.55,9.55,0,0,0,3.57-5.69,8.25,8.25,0,0,0,.25-2,4.15,4.15,0,0,0-.71-2.53c-1.35-1.89-4-1.92-7.13-1.94l-1.52,0c-4,0-5.55,0-6.21-.05-.05.29-.15.81-.15.81L182,101.13l-3.56,14.64C181.94,115.73,183.36,115.73,184,115.8Zm2.63-12s1.51-6.58,1.5-6.55l0-.34,0-.26.6.06L192,97c1.23.48,1.74,1.7,1.38,3.3a4.78,4.78,0,0,1-2.49,3.29,7.9,7.9,0,0,1-3.5.55h-.82Zm9.41,5.89c-.4,1.7-.86,4.81,2,5.92a5.5,5.5,0,0,0,2.54.46,4.22,4.22,0,0,0,2.43-1.11c-.07.25-.13.51-.2.77l.13.17c2-.09,2.68-.09,4.9-.07l.2-.15c.32-1.91.63-3.75,1.47-7.4q.62-2.61,1.24-5.2l-.07-.19c-2.29.42-2.9.51-5.1.82l-.17.14c0,.18,0,.35-.07.52a3.06,3.06,0,0,0-1.6-1.32c-1-.39-3.28.11-5.26,1.91A8.88,8.88,0,0,0,196,109.66Zm4.81.11c.49-2.1,1-3.88,2.51-3.88.92,0,1.41.85,1.31,2.31-.08.36-.17.74-.27,1.17-.14.62-.3,1.24-.45,1.86a4.81,4.81,0,0,1-.54,1.09,2.54,2.54,0,0,1-1.78.86c-.15,0-1.05,0-1.08-1.33A8.85,8.85,0,0,1,200.8,109.77Zm25.1-6.93-.17-.2c-2.27.46-2.68.53-4.76.81l-.15.15,0,.1v0c-1.55,3.57-1.51,2.8-2.77,5.61,0-.13,0-.21,0-.34l-.32-6.1-.2-.2c-2.37.46-2.43.53-4.62.81l-.17.15c0,.08,0,.16,0,.24l0,0a30.78,30.78,0,0,1,.48,3.3c.13,1.08.3,2.17.43,3.25.21,1.79.34,2.67.6,5.4-1.48,2.45-1.83,3.37-3.26,5.51v0l-1,1.58a.75.75,0,0,1-.36.33,6.17,6.17,0,0,0-.66.53h-.55l-.84,2.81h2.84s2.71-1.23,3.27-2.28l1.79-3.35h0l.19.08C216.78,118.48,225.9,102.84,225.9,102.84Zm-30,36h-1.21l4.54-15h1.53l.44-1.44,0,1.6c0,1,.73,1.86,2.76,1.71h2.59l.85-2.81h-.93s-.79.36-.76.07l-.05-2h-4.94v0a63.52,63.52,0,0,0-6.8.38,8.16,8.16,0,0,0-2.23,1.1l.45-1.51H188l-.89,3-4.48,14.84h-.68l-.85,2.81h8.59l-.29.94h4.24l.28-.94h1.22Zm-3.49-12a18.83,18.83,0,0,0-2,.77l1.14-3.76h3.43l-.83,2.74A10.89,10.89,0,0,0,192.46,126.79Zm.07,5.38s-1.08.13-1.79.29a18.54,18.54,0,0,0-2,.88l1.18-3.91h3.44Zm-1.92,6.64h-3.44l1-3.75h3.42Zm8.28-8.44h5l-.72,1.87h-5l-.75,2.82h4.45l-3.41,4.79a1.38,1.38,0,0,1-.68.57,2.08,2.08,0,0,1-.92.27h-1.16l-.84,1.87H198s2.64-.38,3.36-1.37l2.28-3.12.49,3.17a1.49,1.49,0,0,0,.82,1.07,2.94,2.94,0,0,0,1.12.48c.5,0,1.1.71,1.1.71h1.57l.94-3.75H209a2.5,2.5,0,0,1-1-.16,1.5,1.5,0,0,1-.15-.62l-.46-3h-2.09l.89-.93h5l.77-2.82h-4.64l.72-1.87h4.63l.86-3.76h-13.8Zm-42,9.65,1.21-4h4.8l.85-2.81H159l.73-2.81h4.73l.88-2.82H153.56l-.86,2.82h2.74l-.7,2.81h-2.67l-.85,2.81h2.66l-1.63,5.37a1.27,1.27,0,0,0,.31,1.31,1.38,1.38,0,0,0,.89.66,5.45,5.45,0,0,0,1.29.17h5.34l1-3.32-2.48.34C158.12,140.52,156.79,140.47,156.93,140Zm.63-19-1.2,2.38a2.55,2.55,0,0,1-.7.91c-.18.11-1.08-.47-1.08-.47H154l-.84,3.75h2.09s1.78-.7,2.15-.89.5-.09.8-.38l.71-.61h6.53l.84-2.81h-4.76l.83-1.88Zm9.61,18.27c-.11-.16,0-.44.14-1l1.81-6h6.43c.9,0,1.55,0,2-.05a4,4,0,0,0,1.48-.5,2.82,2.82,0,0,0,1.09-1,8.89,8.89,0,0,0,1.06-2.42l2.19-7.29h-6.48s-2,.56-2.92.89a11.66,11.66,0,0,0-2.19,1.39l.6-1.34h-4.22l-5.41,17.94a11.3,11.3,0,0,0-.35,1.5c0,.33.42.65.69.9a2.5,2.5,0,0,0,1.26.24c.48,0,1.17.06,2.12.06h3.19l1-3.27-2.83.26A.73.73,0,0,1,167.17,139.25Zm3.09-10.76h6.66l-.42,1.59c-.06,0-.2-.07-.88-.65h-5.77Zm1.34-3.75h6.71l-.48,1.59s-3.17,0-3.67.07a7.51,7.51,0,0,0-3.54,1.57Zm5.1,9.76a.72.72,0,0,1-.28.43,1.37,1.37,0,0,1-.71.13h-1l.06-1.88h-4l-.16,7.86c0,.56,0,.89.46,1.15s1.69.37,3.41.37H177l.89-2.94-2.14.12-.71,0a.88.88,0,0,1-.3-.18c-.09-.09-.24,0-.21-.6v-1.63l2.37-.1a3,3,0,0,0,2.28-.81,2.51,2.51,0,0,0,.76-1.4l.4-1.88h-3.25Z"/><g id="layer1"><g id="g10305"><path id="path2268" class="cls-5" d="M751,115.8a44.78,44.78,0,0,1-89.56,0v0a44.78,44.78,0,1,1,89.56,0Z"/><path id="path1350" class="cls-6" d="M646.29,71a44.86,44.86,0,1,0,30.48,78h.08a40.9,40.9,0,0,0,4.2-4.43h-9l-3.34-5.32h15.91a42.18,42.18,0,0,0,2.41-4.44h-21a40.88,40.88,0,0,1-1.77-4.43H689a45.22,45.22,0,0,0,1.28-23.94H663a40.48,40.48,0,0,1,1.21-4.44H689l-1.93-5.32H666.18a40.51,40.51,0,0,1,2.42-4.43h15.74a41.29,41.29,0,0,0-3.21-4.43h-8.5a43.25,43.25,0,0,1,4.67-4.71A46.42,46.42,0,0,0,645.94,71Z"/><path id="use9412" class="cls-7" d="M746.84,139.19a1.53,1.53,0,0,1,.71.18,1.4,1.4,0,0,1,.54.54,1.45,1.45,0,0,1,.2.72,1.55,1.55,0,0,1-.19.72,1.4,1.4,0,0,1-.54.54,1.46,1.46,0,0,1-1.44,0,1.4,1.4,0,0,1-.54-.54,1.55,1.55,0,0,1-.19-.72,1.45,1.45,0,0,1,.2-.72,1.4,1.4,0,0,1,.54-.54,1.53,1.53,0,0,1,.71-.18m0,.24a1.26,1.26,0,0,0-.59.15,1.21,1.21,0,0,0-.45.45,1.19,1.19,0,0,0-.17.6,1.28,1.28,0,0,0,.16.6,1.15,1.15,0,0,0,.45.45,1.21,1.21,0,0,0,1.2,0,1.15,1.15,0,0,0,.45-.45,1.28,1.28,0,0,0,.16-.6,1.19,1.19,0,0,0-.17-.6,1.08,1.08,0,0,0-.45-.45,1.26,1.26,0,0,0-.59-.15m-.27,1.62v-.89h.17c.18-.28.32-.27.4-.24a.36.36,0,0,1,.19.15.4.4,0,0,1,.08.23.44.44,0,0,1-.12.3.5.5,0,0,1-.33.14.47.47,0,0,1,.14.08,2.23,2.23,0,0,1,.23.31l.19.81h-.31l-.14-.75a1.27,1.27,0,0,0-.26-.36s-.2.22-.2.22h0v.89h0m0-1.78h.19c.15.4.25.38.3.33a.21.21,0,0,0,.08-.17.16.16,0,0,0,0-.12.22.22,0,0,0-.1-.09s-.13,0-.26.94h-.17v-.89"/></g><g id="g16480"><g id="g13802"><path id="path13804" class="cls-8" d="M661.28,128.39l.57-3.89c-.31,0-.77.14-1.18.14-1.59,0-1.79-.86-1.66-1.48l1.57-7.82h2.63l.5-4.44h-2.35l.46-2.66H656.9c-.1.1-2.7,15.05-2.7,16.88,0,2.69,1.51,3.89,3.65,3.87A11.65,11.65,0,0,0,661.28,128.39Z"/><path id="path13806" class="cls-8" d="M662.92,121.23c0,6.73,4.44,8.33,8.23,8.33a14.31,14.31,0,0,0,5.33-.81l.84-4.59a17.34,17.34,0,0,1-5.36,1.2c-5.11,0-4.22-3.82-4.22-3.82l9.83,0a33.84,33.84,0,0,0,.63-4.34c0-3.14-1.71-7-6.94-7C666.47,110.24,662.92,115.4,662.92,121.23Zm8.36-7.39c2.68,0,2.19,3,2.19,3.27h-5.29C668.18,116.8,668.68,113.84,671.28,113.84Z"/><path id="path13808" class="cls-8" d="M701.44,128.63l.86-5.19a11.5,11.5,0,0,1-3.95,1.17c-3.38,0-4.73-2.58-4.73-5.35,0-5.63,2.91-8.72,6.14-8.72a8.51,8.51,0,0,1,4.38,1.36l.78-5.05a9.49,9.49,0,0,0-4.78-1.67c-7.44,0-11.71,5.16-11.71,14.12,0,5.94,3.16,10,8.84,10A22.08,22.08,0,0,0,701.44,128.63Z"/><path id="path13810" class="cls-8" d="M635.21,109.77a16.42,16.42,0,0,0-5.77,1l-.69,4.1a15,15,0,0,1,5.19-.84c1.77,0,3.07.2,3.07,1.65a3,3,0,0,1-.16,1.19s-1.4-.11-2.05-.11c-4.65,0-8.44,1.76-8.44,7.06,0,4.18,2.83,5.13,4.59,5.13a5.83,5.83,0,0,0,4.77-2.13l0,1.77h4.2l1.87-13.12C641.75,110,636.9,109.77,635.21,109.77Zm.72,10.87c.1.81-.2,4.59-3.07,4.59a1.74,1.74,0,0,1-1.87-1.8c0-1.3.71-2.87,4.2-2.87C636,120.56,635.8,120.62,635.93,120.64Z"/><path id="path13812" class="cls-8" d="M646.21,129.13c1.07,0,7.21.27,7.21-6.06,0-5.92-5.68-4.75-5.68-7.13,0-1.18.92-1.55,2.62-1.55.67,0,3.25.21,3.25.21l.6-4.21a22.36,22.36,0,0,0-4.39-.37c-3.53,0-7.1,1.41-7.1,6.22,0,5.46,6,4.91,6,7.21,0,1.53-1.67,1.66-2.95,1.66a15.68,15.68,0,0,1-4.23-.73l-.64,4.16C641,128.58,642.21,129.13,646.21,129.13Z"/><path id="path13814" class="cls-8" d="M740.82,105.55l-.88,6.53a6.42,6.42,0,0,0-4.68-2.52c-5.38,0-8.15,5.35-8.15,11.51,0,4,2,7.86,6,7.86a6.07,6.07,0,0,0,4.52-2l-.21,1.73h4.71l3.71-23.06Zm-2.13,13.1c0,2.51-1.24,5.88-3.82,5.88-1.72,0-2.52-1.44-2.52-3.7,0-3.7,1.66-6.13,3.75-6.13C737.81,114.7,738.69,115.87,738.69,118.65Z"/><path id="path13816" class="cls-8" d="M608.93,128.64l3-17.39.43,17.39h3.33l6.23-17.39-2.76,17.39h5l3.81-23.06-7.87-.06-4.68,14.12-.13-14.06H608l-3.87,23.06Z"/><path id="path13818" class="cls-8" d="M682.8,128.64c1.4-8,1.9-14.24,6-12.93a28.13,28.13,0,0,1,2.62-7.06s-.2-.3-1.46-.3c-2.15,0-5,4.36-5,4.36l.43-2.7h-4.48l-3,18.63Z"/><g id="use14699"><path id="path13810-2" data-name="path13810" class="cls-8" d="M711.42,109.77a16.42,16.42,0,0,0-5.77,1l-.69,4.1a15.05,15.05,0,0,1,5.19-.84c1.77,0,3.07.2,3.07,1.65a3,3,0,0,1-.16,1.19s-1.4-.11-2-.11c-4.66,0-8.45,1.76-8.45,7.06,0,4.18,2.84,5.13,4.6,5.13a5.87,5.87,0,0,0,4.77-2.13l0,1.77h4.19L718,115.52C718,110,713.11,109.77,711.42,109.77Zm.73,10.87c.09.81-.21,4.59-3.08,4.59a1.73,1.73,0,0,1-1.86-1.8c0-1.3.7-2.87,4.2-2.87C712.22,120.56,712,120.62,712.15,120.64Z"/></g><path id="use14701" class="cls-8" d="M722.79,128.64c.76-5.85,2.19-14.07,6-12.93.59-3.08,0-3.07-1.24-3.07a25.22,25.22,0,0,0-2.63.07l.43-2.7h-4.47l-3,18.63Z"/></g><g id="g10289"><path id="path4157" class="cls-9" d="M662.57,127l.59-4c-.32,0-.79.14-1.2.14-1.62,0-1.8-.86-1.7-1.5l1.31-8.07h2.58l.6-4.43h-2.36l.46-2.66h-4.72c-.11.1-2.75,15.3-2.75,17.15,0,2.74,1.54,4,3.71,3.94A12.51,12.51,0,0,0,662.57,127Z"/><path id="path4155" class="cls-9" d="M664.16,119.46c0,6.73,4.45,8.33,8.23,8.33a12.18,12.18,0,0,0,5-.78l.83-4.6a14.77,14.77,0,0,1-5,1.17c-5.12,0-4.22-3.81-4.22-3.81h9.68a34.59,34.59,0,0,0,.62-4.35c0-3.14-1.56-7-6.79-7C667.71,108.46,664.16,113.62,664.16,119.46Zm8.36-6.5c2.69,0,2.19,3,2.19,3.26h-5.29C669.42,115.91,669.92,113,672.52,113Z"/><path id="path4151" class="cls-9" d="M702.69,127.19l.85-5.2a11.49,11.49,0,0,1-3.94,1.17c-3.38,0-4.74-2.58-4.74-5.35,0-5.62,2.91-8.72,6.15-8.72a8.46,8.46,0,0,1,4.37,1.37l.78-5a17.11,17.11,0,0,0-5.37-1.17c-5.5,0-10.85,4.77-10.85,13.73,0,5.94,2.89,9.87,8.58,9.87A22.08,22.08,0,0,0,702.69,127.19Z"/><path id="path4149" class="cls-9" d="M636.45,108.88a16.42,16.42,0,0,0-5.77,1.05L630,114a15.05,15.05,0,0,1,5.19-.84c1.77,0,3.07.2,3.07,1.64a3,3,0,0,1-.16,1.2s-1.4-.12-2-.12c-4.12,0-8.45,1.76-8.45,7.06,0,4.18,2.84,5.14,4.6,5.14a6.15,6.15,0,0,0,4.88-2.19l-.15,1.82h4.19L643,114.63C643,109.06,638.14,108.88,636.45,108.88Zm1,10.35c.09.8-.5,4.56-3.37,4.56a1.73,1.73,0,0,1-1.86-1.8c0-1.31.71-2.87,4.2-2.87A3,3,0,0,1,637.47,119.23Z"/><path id="path4145" class="cls-9" d="M647.45,127.68c1.08,0,7.21.27,7.21-6.06,0-5.91-5.68-4.74-5.68-7.12,0-1.19.93-1.56,2.62-1.56.67,0,3.25.22,3.25.22l.61-4.21a22,22,0,0,0-4.4-.38c-3.52,0-7.1,1.41-7.1,6.22,0,5.46,6,4.91,6,7.21,0,1.53-1.66,1.66-2.95,1.66a15.24,15.24,0,0,1-4.23-.73l-.63,4.17C642.22,127.13,643.46,127.68,647.45,127.68Z"/><path id="path4139" class="cls-9" d="M742.23,104.7l-1.05,6.49a6.39,6.39,0,0,0-4.68-2.52c-4.44,0-8.15,5.36-8.15,11.51,0,4,2,7.87,6,7.87a6.05,6.05,0,0,0,4.51-2l-.21,1.73h4.71l3.71-23.06Zm-2.29,12.5c0,2.52-1.25,5.88-3.83,5.88-1.72,0-2.52-1.44-2.52-3.7,0-3.69,1.66-6.13,3.75-6.13C739.06,113.25,739.94,114.43,739.94,117.2Z"/><path id="path4133" class="cls-9" d="M610.54,127.75l3-17.38.43,17.38h3.34l6.22-17.38-2.76,17.38h5l3.82-23.06h-7.67l-4.77,14.15-.25-14.15h-7.06l-3.88,23.06Z"/><path id="path4131" class="cls-9" d="M684.05,127.75c1.4-8,1.66-14.41,5-13.23a18.5,18.5,0,0,1,1.79-5.57,5.32,5.32,0,0,0-.93-.06c-2.15,0-3.74,2.94-3.74,2.94l.43-2.7h-4.48l-3,18.62Z"/><g id="use8523"><path id="path4149-2" data-name="path4149" class="cls-9" d="M713.68,108.88a16.42,16.42,0,0,0-5.77,1.05l-.69,4.11a15,15,0,0,1,5.19-.84c1.77,0,3.07.2,3.07,1.64a3,3,0,0,1-.16,1.2s-1.4-.12-2.05-.12c-4.12,0-8.44,1.76-8.44,7.06,0,4.18,2.83,5.14,4.59,5.14a6.18,6.18,0,0,0,4.89-2.19l-.15,1.82h4.19l1.87-13.12C720.22,109.06,715.37,108.88,713.68,108.88Zm1,10.35c.09.8-.5,4.56-3.37,4.56a1.73,1.73,0,0,1-1.86-1.8c0-1.31.7-2.87,4.19-2.87A3.08,3.08,0,0,1,714.7,119.23Z"/></g><g id="use8525"><path id="path4131-2" data-name="path4131" class="cls-9" d="M724.05,127.75c1.4-8,1.66-14.41,5-13.23a18.5,18.5,0,0,1,1.79-5.57,5.32,5.32,0,0,0-.93-.06c-2.15,0-3.74,2.94-3.74,2.94l.42-2.7h-4.47l-3,18.62Z"/></g><path id="text9407" class="cls-9" d="M746.82,124.62a1.43,1.43,0,0,1,.71.19,1.31,1.31,0,0,1,.54.53,1.49,1.49,0,0,1,.2.73,1.55,1.55,0,0,1-.19.72,1.31,1.31,0,0,1-.54.53,1.46,1.46,0,0,1-1.44,0,1.23,1.23,0,0,1-.53-.53,1.45,1.45,0,0,1-.2-.72,1.49,1.49,0,0,1,.2-.73,1.31,1.31,0,0,1,.54-.53,1.43,1.43,0,0,1,.71-.19m0,.24a1.16,1.16,0,0,0-.59.16,1.12,1.12,0,0,0-.45.44,1.25,1.25,0,0,0-.17.61,1.28,1.28,0,0,0,.16.6,1.12,1.12,0,0,0,.45.44,1.2,1.2,0,0,0,1.2,0,1.12,1.12,0,0,0,.45-.44,1.31,1.31,0,0,0,.16-.6,1.25,1.25,0,0,0-.17-.61,1,1,0,0,0-.45-.44,1.16,1.16,0,0,0-.59-.16m-.25,2v-1.77h.15a.71.71,0,0,0,.4.26.43.43,0,0,1,.2.15.41.41,0,0,1,.07.23.42.42,0,0,1-.12.3.5.5,0,0,1-.32.14.57.57,0,0,1,.13.08,2.06,2.06,0,0,1,.23.31l.19.3h-.31l-.14-.24a1.27,1.27,0,0,0-.26-.36,2.23,2.23,0,0,1-.2-.28h0v.88h0m0-.88h.17a.4.4,0,0,0,.3-.06.21.21,0,0,0,.08-.17.17.17,0,0,0,0-.12.2.2,0,0,0-.1-.08c-.05,0-.13,0-.25-.46h-.16V126"/></g></g></g><g id="g4158"><polygon id="polygon9" class="cls-10" points="399.11 159.97 375.73 159.97 390.36 69.55 413.74 69.55 399.11 159.97"/><path id="path11" class="cls-10" d="M483.4,72.36a57.35,57.35,0,0,0-20.86-3.83c-23,0-39.14,12.25-39.24,29.75-.19,12.92,11.58,20.1,20.38,24.41,9,4.4,12.06,7.27,12.06,11.19-.09,6-7.27,8.81-14,8.81-9.28,0-14.26-1.44-21.82-4.79l-3.06-1.44-3.26,20.19c5.46,2.49,15.51,4.7,25.94,4.79,24.4,0,40.29-12.06,40.48-30.71.09-10.24-6.12-18.09-19.52-24.5-8.14-4.11-13.12-6.89-13.12-11.1.1-3.83,4.21-7.75,13.4-7.75a39.5,39.5,0,0,1,17.32,3.45l2.1,1,3.17-19.42Z"/><path id="path13" class="cls-10" d="M514.31,128.47c1.91-5.16,9.28-25.16,9.28-25.16-.1.19,1.91-5.26,3.06-8.61l1.63,7.75s4.4,21.53,5.36,26Zm28.83-58.92H525.05c-5.58,0-9.81,1.63-12.22,7.5L478.1,160h25l4.78-13.21h29.23c.65,3.09,2.72,13.21,2.72,13.21H562L543.14,69.55Z"/><path id="path15" class="cls-10" d="M356.33,70.56l-22.66,61-2.48-12.38c-4.19-14.29-17.33-29.8-32-37.52L320,160h24.48L380.8,70.56Z"/><path id="path17" class="cls-11" d="M312.49,70.56H275.07l-.38,1.82c29.18,7.46,48.51,25.45,56.46,47.08L323,78.12c-1.34-5.74-5.45-7.37-10.52-7.56Z"/></g></svg>