<svg id="visual" viewBox="0 0 960 540" width="960" height="540" xmlns="http://www.w3.org/2000/svg" xmlns:xlink="http://www.w3.org/1999/xlink" version="1.1"><path d="M0 492L22.8 481.5C45.7 471 91.3 450 137 425.8C182.7 401.7 228.3 374.3 274 382.7C319.7 391 365.3 435 411.2 441.7C457 448.3 503 417.7 548.8 414.5C594.7 411.3 640.3 435.7 686 452.5C731.7 469.3 777.3 478.7 823 469.7C868.7 460.7 914.3 433.3 937.2 419.7L960 406L960 541L937.2 541C914.3 541 868.7 541 823 541C777.3 541 731.7 541 686 541C640.3 541 594.7 541 548.8 541C503 541 457 541 411.2 541C365.3 541 319.7 541 274 541C228.3 541 182.7 541 137 541C91.3 541 45.7 541 22.8 541L0 541Z" fill="#272578" stroke-linecap="round" stroke-linejoin="miter"></path></svg>